<svg xmlns="http://www.w3.org/2000/svg" xmlns:xlink="http://www.w3.org/1999/xlink" xmlns:lucid="lucid" width="1747.67" height="1598"><g transform="translate(-65.73978497615194 -162.50278758948184)" lucid:page-tab-id=".Q4MUjXso07N"><path d="M529.62 171.5a8 8 0 0 1 8-8H1432a8 8 0 0 1 8 8V1752a8 8 0 0 1-8 8H537.62a8 8 0 0 1-8-8z" stroke="#000" stroke-opacity="0" fill="#f2f3f5"/><use xlink:href="#a" transform="matrix(1,0,0,1,537.6214937276677,171.50278758948184) translate(0 28.02916666666667)"/><path d="M201.73 179.5a16 16 0 0 1 16-16h260.2a16 16 0 0 1 16 16v165.34a16 16 0 0 1-16 16h-260.2a16 16 0 0 1-16-16z" stroke="#dfe3e8" stroke-width="2" fill="#fff"/><path d="M257.34 235.96c0 1.48-1.2 2.68-2.67 2.68-1.48 0-2.67-1.2-2.67-2.68 0-1.47 1.2-2.67 2.67-2.67 1.48 0 2.67 1.2 2.67 2.66z" stroke="#333" stroke-width="1.05" fill="#fff"/><path d="M254.67 238.64v8.3c0 .54.12 1 .4 1.5l4.95 8.9m-5.35-9.6l-5.35 9.6m0-16.03h10.7" stroke="#333" stroke-width="1.05" fill="none"/><path d="M249.32 234.1c0-.45.36-.8.8-.8h9.1c.44 0 .8.35.8.8v22.45c0 .44-.36.8-.8.8h-9.1c-.44 0-.8-.36-.8-.8z" fill="none"/><path d="M240.23 283.82a14.44 14.44 0 0 1 14.44-14.43 14.44 14.44 0 0 1 14.44 14.43 14.44 14.44 0 0 1-14.43 14.43 14.44 14.44 0 0 1-14.44-14.44" stroke="#000" stroke-opacity=".25" fill="#fff"/><path d="M242.64 313.9c0-.33.27-.6.6-.6h22.86c.33 0 .6.27.6.6v16.85c0 .33-.27.6-.6.6h-22.86c-.33 0-.6-.27-.6-.6z" stroke="#000" stroke-opacity="0" fill="#f2f3f5"/><use xlink:href="#b" transform="matrix(1,0,0,1,240.2310423077313,192.38001099201418) translate(0 20.514322916666668)"/><use xlink:href="#c" transform="matrix(1,0,0,1,240.2310423077313,192.38001099201418) translate(35.12526041666667 20.514322916666668)"/><use xlink:href="#d" transform="matrix(1,0,0,1,240.2310423077313,192.38001099201418) translate(77.63723958333335 20.514322916666668)"/><use xlink:href="#e" transform="matrix(1,0,0,1,240.2310423077313,192.38001099201418) translate(130.97500000000002 20.514322916666668)"/><use xlink:href="#f" transform="matrix(1,0,0,1,283.54687741152975,230.88297552872393) translate(0 20.514322916666668)"/><use xlink:href="#g" transform="matrix(1,0,0,1,283.54687741152975,269.3859400654337) translate(0 20.514322916666668)"/><use xlink:href="#h" transform="matrix(1,0,0,1,283.54687741152975,269.3859400654337) translate(35.31901041666667 20.514322916666668)"/><use xlink:href="#i" transform="matrix(1,0,0,1,283.54687741152975,307.8889046021435) translate(0 20.514322916666668)"/><path d="M125.52 418.35H488a12 12 0 0 0 12-12v-93.8a12 12 0 0 1 12-12h76.63M125.53 418.35h-3.5" stroke="#333" fill="none"/><path d="M589.12 300.4l.03.63h-.53v-.95h.5z" stroke="#333" stroke-width=".05" fill="#333"/><path d="M749.62 300c0 33.14-35.82 60-80 60s-80-26.86-80-60 35.82-60 80-60 80 26.86 80 60z" stroke="#000" fill="#fff"/><use xlink:href="#j" transform="matrix(1,0,0,1,613.6214937276677,264) translate(-6.6932617187500085 42.089501953125)"/><path d="M103.27 359.34a19.75 19.75 0 0 1 19.75-19.75 19.75 19.75 0 0 1 19.75 19.74 19.75 19.75 0 0 1-19.75 19.75 19.75 19.75 0 0 1-19.75-19.76" stroke="#333" stroke-width="4" fill="#fff"/><path d="M80 345.6a6 6 0 0 1 6-6h74.04a6 6 0 0 1 6 6v146a6 6 0 0 1-6 6H86a6 6 0 0 1-6-6z" fill="none"/><path d="M123.02 379.1v55.3l43.02 63.2m-43.02-63.2L80 497.6m0-98.76h86.04" stroke="#333" stroke-width="4" fill="none"/><use xlink:href="#k" transform="matrix(1,0,0,1,0,497.5899933665846) translate(100.21114908854167 20.22104166666666)"/><path d="M1620.25 319.75A19.75 19.75 0 0 1 1640 300a19.75 19.75 0 0 1 19.75 19.75A19.75 19.75 0 0 1 1640 339.5a19.75 19.75 0 0 1-19.75-19.75" stroke="#000" stroke-width="2" fill="#fff"/><path d="M1600 308a8 8 0 0 1 8-8h64a8 8 0 0 1 8 8v142a8 8 0 0 1-8 8h-64a8 8 0 0 1-8-8z" fill="none"/><path d="M1640 339.5v55.3l40 63.2m-40-63.2l-40 63.2m0-98.75h80" stroke="#000" stroke-width="2" fill="none"/><use xlink:href="#l" transform="matrix(1,0,0,1,1520,458) translate(44.29383680555557 21.74305555555555)"/><use xlink:href="#m" transform="matrix(1,0,0,1,1520,458) translate(137.09635416666666 21.74305555555555)"/><path d="M1639.75 1199.75a19.75 19.75 0 0 1 19.75-19.75 19.75 19.75 0 0 1 19.75 19.75 19.75 19.75 0 0 1-19.75 19.75 19.75 19.75 0 0 1-19.75-19.75" stroke="#000" stroke-width="2" fill="#fff"/><path d="M1619.5 1188a8 8 0 0 1 8-8h64a8 8 0 0 1 8 8v142a8 8 0 0 1-8 8h-64a8 8 0 0 1-8-8z" fill="none"/><path d="M1659.5 1219.5v55.3l40 63.2m-40-63.2l-40 63.2m0-98.75h80" stroke="#000" stroke-width="2" fill="none"/><use xlink:href="#n" transform="matrix(1,0,0,1,1539.4999957100322,1338) translate(71.70279947916667 21.74305555555555)"/><use xlink:href="#o" transform="matrix(1,0,0,1,1539.4999957100322,1338) translate(99.52821180555556 21.74305555555555)"/><path d="M337.23 749.75A19.75 19.75 0 0 1 356.98 730a19.75 19.75 0 0 1 19.75 19.75 19.75 19.75 0 0 1-19.75 19.75 19.75 19.75 0 0 1-19.75-19.75" stroke="#333" stroke-width="4" fill="#fff"/><path d="M316.98 736a6 6 0 0 1 6-6h68a6 6 0 0 1 6 6v146a6 6 0 0 1-6 6h-68a6 6 0 0 1-6-6z" fill="none"/><path d="M356.98 769.5v55.3l40 63.2m-40-63.2l-40 63.2m0-98.75h80" stroke="#333" stroke-width="4" fill="none"/><use xlink:href="#p" transform="matrix(1,0,0,1,236.98216013862492,888) translate(54.891384548611114 21.74305555555555)"/><use xlink:href="#q" transform="matrix(1,0,0,1,236.98216013862492,888) translate(143.64995659722223 21.74305555555555)"/><path d="M103.37 959.75A19.75 19.75 0 0 1 123.12 940a19.75 19.75 0 0 1 19.75 19.75 19.75 19.75 0 0 1-19.75 19.75 19.75 19.75 0 0 1-19.75-19.75" stroke="#333" stroke-width="4" fill="#fff"/><path d="M83.12 946a6 6 0 0 1 6-6h68a6 6 0 0 1 6 6v146a6 6 0 0 1-6 6h-68a6 6 0 0 1-6-6z" fill="none"/><path d="M123.12 979.5v55.3l40 63.2m-40-63.2l-40 63.2m0-98.75h80" stroke="#333" stroke-width="4" fill="none"/><use xlink:href="#r" transform="matrix(1,0,0,1,3.1193965212908097,1098) translate(63.62038845486113 21.74305555555555)"/><use xlink:href="#s" transform="matrix(1,0,0,1,3.1193965212908097,1098) translate(108.79421657986111 21.74305555555555)"/><path d="M123.02 563.15V937.5" stroke="#333" fill="none"/><path d="M123.02 541l12.5 21.65h-25z" stroke="#333" fill="#fff"/><path d="M123.5 938.02l-.3-.02h-.16l-.5.04v-.55h.95z" stroke="#333" stroke-width=".05" fill="#333"/><path d="M356.98 727.5v-44.1a12 12 0 0 0-12-12H123.52" stroke="#333" fill="none"/><path d="M357.46 728.03l-.4-.03h-.16l-.4.03v-.54h.96z" stroke="#333" stroke-width=".05" fill="#333"/><path d="M123.53 671.4h-.5" stroke="#333" fill="none"/><path d="M1120 300c0 33.14-35.82 60-80 60s-80-26.86-80-60 35.82-60 80-60 80 26.86 80 60z" stroke="#000" fill="#fff"/><use xlink:href="#t" transform="matrix(1,0,0,1,984,264) translate(34.14318359375 42.089501953125)"/><path d="M381.93 418.35H1028a12 12 0 0 0 12-12V361M381.95 418.35h-.52" stroke="#333" fill="none"/><path d="M1040 360.5h.47v.5h-.94v-.5z" stroke="#333" stroke-width=".05" fill="#333"/><path d="M1640 523.15v96.35" stroke="#333" fill="none"/><path d="M1640 501l12.5 21.65h-25z" stroke="#333" fill="#fff"/><path d="M1640 619.5v.5" stroke="#333" fill="none"/><path d="M1720.25 639.75A19.75 19.75 0 0 1 1740 620a19.75 19.75 0 0 1 19.75 19.75A19.75 19.75 0 0 1 1740 659.5a19.75 19.75 0 0 1-19.75-19.75" stroke="#000" stroke-width="2" fill="#fff"/><path d="M1700 628a8 8 0 0 1 8-8h64a8 8 0 0 1 8 8v142a8 8 0 0 1-8 8h-64a8 8 0 0 1-8-8z" fill="none"/><path d="M1740 659.5v55.3l40 63.2m-40-63.2l-40 63.2m0-98.75h80" stroke="#000" stroke-width="2" fill="none"/><use xlink:href="#u" transform="matrix(1,0,0,1,1620,778) translate(50.9296332465278 21.74305555555555)"/><use xlink:href="#v" transform="matrix(1,0,0,1,1620,778) translate(130.46055772569446 21.74305555555555)"/><use xlink:href="#w" transform="matrix(1,0,0,1,1620,778) translate(48.414496527777786 54.331336805555544)"/><path d="M1540.25 639.75A19.75 19.75 0 0 1 1560 620a19.75 19.75 0 0 1 19.75 19.75A19.75 19.75 0 0 1 1560 659.5a19.75 19.75 0 0 1-19.75-19.75" stroke="#000" stroke-width="2" fill="#fff"/><path d="M1520 628a8 8 0 0 1 8-8h64a8 8 0 0 1 8 8v142a8 8 0 0 1-8 8h-64a8 8 0 0 1-8-8z" fill="none"/><path d="M1560 659.5v55.3l40 63.2m-40-63.2l-40 63.2m0-98.75h80" stroke="#000" stroke-width="2" fill="none"/><use xlink:href="#x" transform="matrix(1,0,0,1,1440,778) translate(49.56521267361113 21.74305555555555)"/><use xlink:href="#v" transform="matrix(1,0,0,1,1440,778) translate(131.82497829861111 21.74305555555555)"/><use xlink:href="#w" transform="matrix(1,0,0,1,1440,778) translate(48.414496527777786 54.331336805555544)"/><path d="M1739.5 619h-99" stroke="#333" fill="none"/><path stroke="#333" stroke-width=".05" fill="#333"/><path d="M1640.5 619h-.5M1560.5 619h79" stroke="#333" fill="none"/><path stroke="#333" stroke-width=".05" fill="#333"/><path d="M1639.5 619h.5" stroke="#333" fill="none"/><path d="M1400 520c0 33.14-35.82 60-80 60s-80-26.86-80-60 35.82-60 80-60 80 26.86 80 60z" stroke="#000" fill="#fff"/><use xlink:href="#y" transform="matrix(1,0,0,1,1264,484) translate(9.037270507812494 21.834755859375)"/><use xlink:href="#z" transform="matrix(1,0,0,1,1264,484) translate(57.45902832031249 21.834755859375)"/><use xlink:href="#A" transform="matrix(1,0,0,1,1264,484) translate(23.746074218750003 42.089501953125)"/><use xlink:href="#B" transform="matrix(1,0,0,1,1264,484) translate(22.9082568359375 62.344248046875)"/><path d="M1401 520h106.75a12 12 0 0 0 12-12V402a12 12 0 0 1 12-12h92.76" stroke="#333" fill="none"/><path d="M1401 520.48h-.52l.02-.47V519.53h.5z" stroke="#333" stroke-width=".05" fill="#333"/><path d="M1638 390l-13 7.5v-15z" stroke="#333" fill="#333"/><path d="M749.62 620c0 33.14-35.82 60-80 60s-80-26.86-80-60 35.82-60 80-60 80 26.86 80 60z" stroke="#000" fill="#fff"/><use xlink:href="#C" transform="matrix(1,0,0,1,613.6214937276677,584) translate(36.619853515624996 31.96212890625)"/><use xlink:href="#D" transform="matrix(1,0,0,1,613.6214937276677,584) translate(12.106542968749991 52.216875)"/><path d="M749.62 1680c0 33.14-35.82 60-80 60s-80-26.86-80-60 35.82-60 80-60 80 26.86 80 60z" stroke="#000" fill="#fff"/><use xlink:href="#E" transform="matrix(1,0,0,1,613.6214937276677,1644) translate(30.636611328125 31.96212890625)"/><use xlink:href="#F" transform="matrix(1,0,0,1,613.6214937276677,1644) translate(16.524497070312492 52.216875)"/><path d="M749.62 1480c0 33.14-35.82 60-80 60s-80-26.86-80-60 35.82-60 80-60 80 26.86 80 60z" stroke="#000" fill="#fff"/><use xlink:href="#G" transform="matrix(1,0,0,1,613.6214937276677,1444) translate(0.2544921874999915 42.089501953125)"/><use xlink:href="#F" transform="matrix(1,0,0,1,613.6214937276677,1444) translate(32.794501953125 42.089501953125)"/><path d="M123.52 1480h465.1M123.53 1480h-.5" stroke="#333" fill="none"/><path d="M589.12 1480V1480.46h-.5v-.94h.52z" stroke="#333" stroke-width=".05" fill="#333"/><path d="M123.02 1038.94V1668a12 12 0 0 0 12 12h453.6M122.6 1038.54h3.52" stroke="#333" fill="none"/><path d="M589.12 1680V1680.46h-.5v-.94h.52z" stroke="#333" stroke-width=".05" fill="#333"/><path d="M359.48 820h177.64a12 12 0 0 0 12-12V632a12 12 0 0 1 12-12h27.5M359.5 820h-3.52" stroke="#333" fill="none"/><path d="M589.12 620V620.47h-.5v-.96h.52z" stroke="#333" stroke-width=".05" fill="#333"/><path d="M750.62 620h11.04m11.04 0h22.1m11.03 0h22.08m11.05 0h22.08m11.05 0h11.04" stroke="#333" fill="none"/><path d="M750.63 620.48h-.52l.02-.47V619.53h.5z" stroke="#333" stroke-width=".05" fill="#333"/><path d="M897.88 620l-14.26 4.63v-9.26z" stroke="#333" fill="#333"/><use xlink:href="#H" transform="matrix(1,0,0,1,777.7601363675268,586.1088271156258) translate(0.005000000000002558 20.221041666666665)"/><path d="M1060 620c0 33.14-35.82 60-80 60s-80-26.86-80-60 35.82-60 80-60 80 26.86 80 60z" stroke="#000" fill="#fff"/><use xlink:href="#I" transform="matrix(1,0,0,1,924,584) translate(23.173906249999995 31.96212890625)"/><use xlink:href="#J" transform="matrix(1,0,0,1,924,584) translate(73.47564453125 31.96212890625)"/><use xlink:href="#F" transform="matrix(1,0,0,1,924,584) translate(16.524497070312492 52.216875)"/><path d="M669.62 681v9m0 9v9a12 12 0 0 0 12 12h10.1m10.07 0h20.16m10.08 0h20.17m10.1 0h20.16m10.08 0h20.17m10.1 0h20.16m10.08 0h20.17m10.1 0h20.16m10.08 0h20.17m10.1 0h20.16m10.08 0h20.17m10.1 0h20.16m10.1 0h20.15m10.1 0h20.16m10.1 0h20.15m10.1 0h20.16m10.1 0h20.15m10.1 0h20.16m10.1 0h20.16m10.08 0h20.17m10.08 0h20.17m10.08 0h10.08a3.12 3.12 0 0 1 3.12 3.12" stroke="#333" fill="none"/><path d="M669.6 680.5h.5v.5h-.95v-.5z" stroke="#333" stroke-width=".05" fill="#333"/><path d="M1320 737.88l-4.63-14.26h9.27z" stroke="#333" fill="#333"/><use xlink:href="#H" transform="matrix(1,0,0,1,1002.8246618945066,690.7440820312501) translate(0.005000000000002558 20.221041666666665)"/><path d="M1400 800c0 33.14-35.82 60-80 60s-80-26.86-80-60 35.82-60 80-60 80 26.86 80 60z" stroke="#000" fill="#fff"/><use xlink:href="#K" transform="matrix(1,0,0,1,1264,764) translate(39.9752099609375 31.96212890625)"/><use xlink:href="#L" transform="matrix(1,0,0,1,1264,764) translate(17.640224609375004 52.216875)"/><path d="M749.62 820c0 33.14-35.82 60-80 60s-80-26.86-80-60 35.82-60 80-60 80 26.86 80 60z" stroke="#000" fill="#fff"/><use xlink:href="#M" transform="matrix(1,0,0,1,613.6214937276677,784) translate(7.328940429687492 42.089501953125)"/><use xlink:href="#N" transform="matrix(1,0,0,1,613.6214937276677,784) translate(69.7197705078125 42.089501953125)"/><path d="M359.48 820h229.14M359.5 820h-3.52" stroke="#333" fill="none"/><path d="M589.12 820V820.47h-.5v-.96h.52z" stroke="#333" stroke-width=".05" fill="#333"/><path d="M1240 1040c0 33.14-35.82 60-80 60s-80-26.86-80-60 35.82-60 80-60 80 26.86 80 60z" stroke="#000" fill="#fff"/><use xlink:href="#O" transform="matrix(1,0,0,1,1104,1004) translate(34.4537890625 31.96212890625)"/><use xlink:href="#P" transform="matrix(1,0,0,1,1104,1004) translate(19.6795947265625 52.216875)"/><path d="M356.98 829.04V1108a12 12 0 0 0 12 12h658.52a12 12 0 0 0 12-12v-56a12 12 0 0 1 12-12h27.5M356.98 829.05v-3.5" stroke="#333" fill="none"/><path d="M1079.5 1040V1040.46h-.5v-.94h.52z" stroke="#333" stroke-width=".05" fill="#333"/><path d="M1160 1123.65V1209" stroke="#333" fill="none"/><path d="M1160 1101.5l12.5 21.65h-25z" stroke="#333" fill="#fff"/><path d="M1160.47 1209.52l-.46-.02h-.47v-.5h.94z" stroke="#333" stroke-width=".05" fill="#333"/><path d="M1340 1209v-25.26a12 12 0 0 0-12-12h-167.5" stroke="#333" fill="none"/><path d="M1340.47 1209.52l-.46-.02h-.47v-.5h.94z" stroke="#333" stroke-width=".05" fill="#333"/><path d="M1160.5 1171.74h-.5M1241 1040h266.75a12 12 0 0 1 12 12v206a12 12 0 0 0 12 12h110.37" stroke="#333" fill="none"/><path d="M1241 1040.47h-.52l.02-.46V1039.54h.5z" stroke="#333" stroke-width=".05" fill="#333"/><path d="M1656.88 1270l-14.26 4.63v-9.27z" stroke="#333" fill="#333"/><path d="M1519.75 1259v89a12 12 0 0 1-12 12H1071.5a12 12 0 0 1-12-12v-136a12 12 0 0 0-12-12h-6.5M1519.75 1259v-.5" stroke="#333" fill="none"/><path d="M1041 1200.47h-.52l.02-.46V1199.54h.5z" stroke="#333" stroke-width=".05" fill="#333"/><path d="M1420 1270c0 33.14-35.82 60-80 60s-80-26.86-80-60 35.82-60 80-60 80 26.86 80 60z" stroke="#000" fill="#fff"/><use xlink:href="#Q" transform="matrix(1,0,0,1,1284,1234) translate(20.313066406249987 31.96212890625)"/><use xlink:href="#R" transform="matrix(1,0,0,1,1284,1234) translate(48.23486328124999 31.96212890625)"/><use xlink:href="#S" transform="matrix(1,0,0,1,1284,1234) translate(19.900288085937504 52.216875)"/><path d="M1040 1200c0 33.14-35.82 60-80 60s-80-26.86-80-60 35.82-60 80-60 80 26.86 80 60z" stroke="#000" fill="#fff"/><use xlink:href="#T" transform="matrix(1,0,0,1,904,1164) translate(34.1227490234375 31.96212890625)"/><use xlink:href="#U" transform="matrix(1,0,0,1,904,1164) translate(18.841777343749996 52.216875)"/><path d="M1240 1270c0 33.14-35.82 60-80 60s-80-26.86-80-60 35.82-60 80-60 80 26.86 80 60z" stroke="#000" fill="#fff"/><use xlink:href="#V" transform="matrix(1,0,0,1,1104,1234) translate(12.560190429687495 31.96212890625)"/><use xlink:href="#R" transform="matrix(1,0,0,1,1104,1234) translate(55.9877392578125 31.96212890625)"/><use xlink:href="#P" transform="matrix(1,0,0,1,1104,1234) translate(19.6795947265625 52.216875)"/><path d="M1020 1400c0 33.14-35.82 60-80 60s-80-26.86-80-60 35.82-60 80-60 80 26.86 80 60z" stroke="#000" fill="#fff"/><use xlink:href="#W" transform="matrix(1,0,0,1,884,1364) translate(15.134946289062498 42.089501953125)"/><use xlink:href="#X" transform="matrix(1,0,0,1,884,1364) translate(53.3802880859375 42.089501953125)"/><path d="M749.62 1320c0 33.14-35.82 60-80 60s-80-26.86-80-60 35.82-60 80-60 80 26.86 80 60z" stroke="#000" fill="#fff"/><use xlink:href="#Y" transform="matrix(1,0,0,1,613.6214937276677,1284) translate(5.579741210937492 42.089501953125)"/><use xlink:href="#X" transform="matrix(1,0,0,1,613.6214937276677,1284) translate(62.9354931640625 42.089501953125)"/><path d="M960 1000c0 33.14-35.82 60-80 60s-80-26.86-80-60 35.82-60 80-60 80 26.86 80 60z" stroke="#000" fill="#fff"/><use xlink:href="#Z" transform="matrix(1,0,0,1,824,964) translate(28.196723632812496 31.96212890625)"/><use xlink:href="#aa" transform="matrix(1,0,0,1,824,964) translate(16.2057177734375 52.216875)"/><path d="M1320 459V312a12 12 0 0 0-12-12h-164.35" stroke="#333" fill="none"/><path d="M1320.47 459.5H1319.54v-.5h.94z" stroke="#333" stroke-width=".05" fill="#333"/><path d="M1121.5 300l21.65-12.5v25z" stroke="#333" fill="#fff"/><path d="M1040 1580c0 33.14-35.82 60-80 60s-80-26.86-80-60 35.82-60 80-60 80 26.86 80 60z" stroke="#000" fill="#fff"/><use xlink:href="#ab" transform="matrix(1,0,0,1,904,1544) translate(18.0284814453125 31.96212890625)"/><use xlink:href="#ac" transform="matrix(1,0,0,1,904,1544) translate(37.322802734374996 52.216875)"/><path d="M879 1580H123.52" stroke="#333" fill="none"/><path d="M879.5 1580V1580.46h-.5v-.94h.5z" stroke="#333" stroke-width=".05" fill="#333"/><path d="M123.53 1580h-.5M879 1200H368.98a12 12 0 0 1-12-12V974.4" stroke="#333" fill="none"/><path d="M879.5 1200V1200.46h-.5v-.94h.5z" stroke="#333" stroke-width=".05" fill="#333"/><path d="M356.98 974.42v-.52" stroke="#333" fill="none"/><path d="M749.62 1000c0 33.14-35.82 60-80 60s-80-26.86-80-60 35.82-60 80-60 80 26.86 80 60z" stroke="#000" fill="#fff"/><g><use xlink:href="#ad" transform="matrix(1,0,0,1,613.6214937276677,964) translate(18.330913085937496 31.96212890625)"/><use xlink:href="#ae" transform="matrix(1,0,0,1,613.6214937276677,964) translate(71.6242724609375 31.96212890625)"/><use xlink:href="#af" transform="matrix(1,0,0,1,613.6214937276677,964) translate(7.145029296874995 52.216875)"/><use xlink:href="#ag" transform="matrix(1,0,0,1,613.6214937276677,964) translate(48.275732421875 52.216875)"/></g><path d="M1239 800h-38.77a.73.73 0 0 1-.73-.73.73.73 0 0 0-.73-.73H886.3a12 12 0 0 1-12-12v-33.06a12 12 0 0 0-12-12H561.13a12 12 0 0 0-12 12v.93" stroke="#333" fill="none"/><path d="M1239.5 800V800.47h-.5v-.96h.52z" stroke="#333" stroke-width=".05" fill="#333"/><path d="M549.12 754.4v.5M669.62 939v-35.35" stroke="#333" fill="none"/><path d="M670.1 939.5h-.95v-.5h.95z" stroke="#333" stroke-width=".05" fill="#333"/><path d="M669.62 881.5l12.5 21.65h-25z" stroke="#333" fill="#fff"/><path d="M880 939v-4.86a12 12 0 0 0-12-12H670.12" stroke="#333" fill="none"/><path d="M880.48 939.5h-.95v-.5h.96z" stroke="#333" stroke-width=".05" fill="#333"/><path d="M670.13 922.14h-.5M588.62 1320H368.98a12 12 0 0 1-12-12v-123.1" stroke="#333" fill="none"/><path d="M589.12 1320V1320.46h-.5v-.94h.52z" stroke="#333" stroke-width=".05" fill="#333"/><path d="M356.98 1184.93v-.52M859 1400H368.98a12 12 0 0 1-12-12v-83.37" stroke="#333" fill="none"/><path d="M859.5 1400V1400.46h-.5v-.94h.5z" stroke="#333" stroke-width=".05" fill="#333"/><path d="M356.98 1304.65v-.52" stroke="#333" fill="none"/><path d="M900 500c0 33.14-35.82 60-80 60s-80-26.86-80-60 35.82-60 80-60 80 26.86 80 60z" stroke="#000" fill="#fff"/><g><use xlink:href="#ah" transform="matrix(1,0,0,1,764,464) translate(16.790146484375 42.089501953125)"/><use xlink:href="#N" transform="matrix(1,0,0,1,764,464) translate(60.258564453125004 42.089501953125)"/></g><path d="M739 500H180.5" stroke="#333" fill="none"/><path d="M739.5 500V500.47h-.5v-.96h.5z" stroke="#333" stroke-width=".05" fill="#333"/><path d="M180.5 500h-.5M901 500h9.9m9.88 0h19.78m9.88 0h19.78m9.9 0h19.77m9.88 0h19.78m9.88 0h19.78m9.9 0h19.77m9.88 0h19.78m9.88 0h19.78m9.9 0h9.88a12 12 0 0 1 12 12v9.33m0 9.34v18.66m0 9.34v18.66m0 9.34v18.66m0 9.34v18.66m0 9.34v18.66m0 9.34v18.66m0 9.34V708a12 12 0 0 0 12 12h10.4m10.4 0h20.83m10.4 0h20.82m10.4 0h20.82m10.4 0h10.4a3.12 3.12 0 0 1 3.13 3.12" stroke="#333" fill="none"/><path d="M901 500.48h-.5v-.95h.5z" stroke="#333" stroke-width=".05" fill="#333"/><path d="M1320 737.88l-4.63-14.26h9.27z" stroke="#333" fill="#333"/><g><use xlink:href="#H" transform="matrix(1,0,0,1,1072.5853623367693,470.74408203125006) translate(0.005000000000002558 20.221041666666665)"/></g><defs><path d="M659 0H135v-1490h529c448 0 721 280 721 744 0 466-273 746-726 746zM440-263h204c287 0 437-148 437-483 0-333-150-481-435-481H440v964" id="ai"/><path d="M633 22C291 22 81-200 81-553c0-345 210-579 537-579 292 0 525 185 525 567v84H378c7 183 109 277 260 277 105 0 184-46 216-132l272 51C1071-99 893 22 633 22zM380-669h474c-15-146-94-237-233-237-143 0-229 99-241 237" id="aj"/><path d="M443 0L31-1118h319c90 293 199 572 268 885 66-313 175-593 264-885h315L784 0H443" id="ak"/><path d="M135 0v-1490h581c339 0 533 210 533 503 0 295-197 500-540 500H440V0H135zm305-733h220c186 0 274-104 274-254s-88-251-275-251H440v505" id="al"/><path d="M440 22C227 22 68-92 68-313c0-250 202-322 422-343 195-21 271-24 271-105 0-95-63-149-175-149-116 0-187 57-211 129l-275-46c57-194 237-305 487-305 240 0 474 108 474 379V0H777v-155h-10C713-51 605 22 440 22zm85-211c140 0 238-93 238-211v-121c-37 26-156 42-222 51-111 16-185 59-185 149 0 87 70 132 169 132" id="am"/><path d="M683-1118v229H474v562c0 71 29 104 102 104 23 0 73-7 95-13l43 225C647 9 580 16 520 16 296 16 174-96 174-301v-588H20v-229h154v-266h300v266h209" id="an"/><path d="M428-647V0H128v-1490h294v586c65-146 175-228 341-228 232 0 385 159 385 421V0H847v-659c0-139-76-222-202-222-128 0-217 86-217 234" id="ao"/><g id="a"><use transform="matrix(0.014127604166666669,0,0,0.014127604166666669,0,0)" xlink:href="#ai"/><use transform="matrix(0.014127604166666669,0,0,0.014127604166666669,20.894726562500004,0)" xlink:href="#aj"/><use transform="matrix(0.014127604166666669,0,0,0.014127604166666669,37.60768229166668,0)" xlink:href="#ak"/><use transform="matrix(0.014127604166666669,0,0,0.014127604166666669,55.027018229166686,0)" xlink:href="#al"/><use transform="matrix(0.014127604166666669,0,0,0.014127604166666669,73.40703125000002,0)" xlink:href="#am"/><use transform="matrix(0.014127604166666669,0,0,0.014127604166666669,90.20475260416669,0)" xlink:href="#an"/><use transform="matrix(0.014127604166666669,0,0,0.014127604166666669,100.87109375000001,0)" xlink:href="#ao"/></g><path d="M750 21c-371 0-615-218-615-544v-967h305v942c0 174 123 299 310 299s309-125 309-299v-942h306v967c0 326-247 544-615 544" id="ap"/><path d="M572 22C302 22 117-98 78-306l279-48c29 105 101 156 224 156 114 0 185-48 185-115 0-118-228-130-337-155-215-49-322-150-322-317 0-215 187-347 470-347 265 0 424 116 466 298l-266 47c-24-76-87-130-196-130-98 0-174 46-174 113 0 56 38 95 144 117l201 40c216 44 320 143 320 302 0 220-207 367-500 367" id="aq"/><g id="b"><use transform="matrix(0.008072916666666667,0,0,0.008072916666666667,0,0)" xlink:href="#ap"/><use transform="matrix(0.008072916666666667,0,0,0.008072916666666667,12.101302083333335,0)" xlink:href="#aq"/><use transform="matrix(0.008072916666666667,0,0,0.008072916666666667,21.360937500000002,0)" xlink:href="#aj"/></g><path d="M628 22C291 22 81-210 81-554c0-346 210-578 547-578 265 0 455 142 497 372l-279 52c-25-116-99-188-215-188-160 0-244 139-244 341 0 200 84 341 244 341 116 0 193-74 217-195l279 51C1085-123 896 22 628 22" id="ar"/><g id="c"><use transform="matrix(0.008072916666666667,0,0,0.008072916666666667,0,0)" xlink:href="#ar"/><use transform="matrix(0.008072916666666667,0,0,0.008072916666666667,9.889322916666668,0)" xlink:href="#am"/><use transform="matrix(0.008072916666666667,0,0,0.008072916666666667,19.488020833333334,0)" xlink:href="#aq"/><use transform="matrix(0.008072916666666667,0,0,0.008072916666666667,28.747656250000006,0)" xlink:href="#aj"/></g><path d="M128 418v-1536h295v188h14c41-89 129-202 319-202 248 0 453 193 453 575 0 372-197 576-455 576-183 0-275-108-317-198h-9v597H128zm534-640c156 0 240-139 240-336 0-196-83-334-240-334-154 0-241 131-241 334 0 202 88 336 241 336" id="as"/><g id="d"><use transform="matrix(0.008072916666666667,0,0,0.008072916666666667,0,0)" xlink:href="#aq"/><use transform="matrix(0.008072916666666667,0,0,0.008072916666666667,9.259635416666667,0)" xlink:href="#ao"/><use transform="matrix(0.008072916666666667,0,0,0.008072916666666667,19.55260416666667,0)" xlink:href="#am"/><use transform="matrix(0.008072916666666667,0,0,0.008072916666666667,29.151302083333334,0)" xlink:href="#as"/><use transform="matrix(0.008072916666666667,0,0,0.008072916666666667,39.573437500000004,0)" xlink:href="#aj"/></g><path d="M128 0v-1490h300v802h17l366-430h347L740-633 1179 0H826L514-456l-86 97V0H128" id="at"/><path d="M120 396l69-226c123 42 245 23 254-107l8-60L31-1118h319c87 288 199 559 259 872 72-308 185-583 277-872h315L726 132c-68 181-186 294-410 294-79 0-153-13-196-30" id="au"/><g id="e"><use transform="matrix(0.008072916666666667,0,0,0.008072916666666667,0,0)" xlink:href="#at"/><use transform="matrix(0.008072916666666667,0,0,0.008072916666666667,9.219270833333335,0)" xlink:href="#aj"/><use transform="matrix(0.008072916666666667,0,0,0.008072916666666667,18.769531249999996,0)" xlink:href="#au"/></g><path d="M52 0l541-1490h220L1361 0h-200l-149-416H398L254 0H52zm404-582h497c-103-290-145-390-251-756-108 377-145 460-246 756" id="av"/><path d="M613 24c-304 0-509-231-509-576 0-350 205-580 509-580 216 0 392 114 453 309l-173 49c-33-115-133-197-280-197-223 0-326 196-326 419 0 220 103 415 326 415 150 0 252-85 285-206l172 49C1010-95 832 24 613 24" id="aw"/><path d="M598-1118v154H368v674c0 100 37 144 132 144 23 0 62-6 92-12L629-6c-37 13-88 20-134 20-193 0-307-107-307-290v-688H20v-154h168v-266h180v266h230" id="ax"/><path d="M613 24c-304 0-509-231-509-576 0-350 205-580 509-580 305 0 511 230 511 580 0 345-206 576-511 576zm0-161c226 0 329-195 329-415 0-222-103-419-329-419-223 0-326 196-326 419 0 220 103 415 326 415" id="ay"/><path d="M158 0v-1118h174v172h12c41-113 157-188 290-188 26 0 70 2 91 3v181c-11-2-60-10-108-10-161 0-279 109-279 260V0H158" id="az"/><g id="f"><use transform="matrix(0.008072916666666667,0,0,0.008072916666666667,0,0)" xlink:href="#av"/><use transform="matrix(0.008072916666666667,0,0,0.008072916666666667,11.407031250000001,0)" xlink:href="#aw"/><use transform="matrix(0.008072916666666667,0,0,0.008072916666666667,20.852343750000003,0)" xlink:href="#ax"/><use transform="matrix(0.008072916666666667,0,0,0.008072916666666667,26.09973958333334,0)" xlink:href="#ay"/><use transform="matrix(0.008072916666666667,0,0,0.008072916666666667,36.013281250000006,0)" xlink:href="#az"/></g><path d="M763 24c-353 0-583-224-583-531v-983h190v968c0 214 149 370 393 370 243 0 391-156 391-370v-968h190v983c0 307-230 531-581 531" id="aA"/><path d="M538 24C308 24 148-78 108-271l171-41c32 123 123 178 257 178 156 0 256-77 256-169 0-77-54-128-164-154l-186-44c-203-48-300-148-300-305 0-192 176-326 414-326 230 0 351 112 402 269l-163 42c-31-80-94-158-238-158-133 0-233 69-233 162 0 83 57 129 188 160l169 40c203 48 298 149 298 302 0 196-179 339-441 339" id="aB"/><path d="M628 24c-324 0-524-230-524-574 0-343 198-582 503-582 237 0 487 146 487 559v75H286c9 234 145 362 343 362 132 0 231-58 273-172l174 48C1024-91 857 24 628 24zM287-650h624c-17-190-120-322-304-322-192 0-309 151-320 322" id="aC"/><g id="g"><use transform="matrix(0.008072916666666667,0,0,0.008072916666666667,0,0)" xlink:href="#aA"/><use transform="matrix(0.008072916666666667,0,0,0.008072916666666667,12.303125000000001,0)" xlink:href="#aB"/><use transform="matrix(0.008072916666666667,0,0,0.008072916666666667,21.02994791666667,0)" xlink:href="#aC"/></g><path d="M471 26C259 26 90-98 90-318c0-256 228-303 435-329 202-27 287-16 287-108 0-139-79-219-234-219-161 0-248 86-283 164l-173-57c86-203 278-265 451-265 150 0 419 46 419 395V0H815v-152h-12C765-73 660 26 471 26zm31-159c199 0 310-134 310-271v-155c-30 35-226 55-295 64-131 17-246 59-246 186 0 116 97 176 231 176" id="aD"/><g id="h"><use transform="matrix(0.008072916666666667,0,0,0.008072916666666667,0,0)" xlink:href="#aw"/><use transform="matrix(0.008072916666666667,0,0,0.008072916666666667,9.606770833333336,0)" xlink:href="#aD"/><use transform="matrix(0.008072916666666667,0,0,0.008072916666666667,18.890625000000004,0)" xlink:href="#aB"/><use transform="matrix(0.008072916666666667,0,0,0.008072916666666667,27.61744791666667,0)" xlink:href="#aC"/></g><path d="M657 26c-323 0-524-166-541-416h195c15 169 171 246 346 246 202 0 356-106 356-265 5-203-294-238-475-293-239-73-380-191-380-389 0-252 224-419 512-419 294 0 499 171 508 396H992c-17-145-151-228-328-228-193 0-321 102-321 242 0 156 175 211 284 241l149 41c160 44 422 134 422 412 0 244-197 432-541 432" id="aE"/><path d="M140 405l46-156c120 36 205 19 263-150l32-93L54-1118h197c107 313 237 620 324 950 87-331 219-637 326-950h196L606 167c-68 178-176 259-334 259-64 0-113-12-132-21" id="aF"/><path d="M158 0v-1118h175l1 205c55-151 181-225 313-225 147 0 245 90 285 228 53-141 190-228 352-228 194 0 352 125 352 384V0h-181v-749c0-161-105-225-225-225-151 0-243 103-243 244V0H807v-767c0-124-93-207-219-207-131 0-250 92-250 270V0H158" id="aG"/><g id="i"><use transform="matrix(0.008072916666666667,0,0,0.008072916666666667,0,0)" xlink:href="#aE"/><use transform="matrix(0.008072916666666667,0,0,0.008072916666666667,10.607812500000001,0)" xlink:href="#aF"/><use transform="matrix(0.008072916666666667,0,0,0.008072916666666667,19.899739583333336,0)" xlink:href="#aB"/><use transform="matrix(0.008072916666666667,0,0,0.008072916666666667,28.626562500000006,0)" xlink:href="#ax"/><use transform="matrix(0.008072916666666667,0,0,0.008072916666666667,33.87395833333334,0)" xlink:href="#aC"/><use transform="matrix(0.008072916666666667,0,0,0.008072916666666667,43.51302083333334,0)" xlink:href="#aG"/></g><path d="M180 0v-1490h510c348 0 508 194 508 460 0 198-88 351-276 417L1256 0h-220L726-579c-117 2-238 0-356 1V0H180zm190-747h312c235 0 327-108 327-283 0-177-92-293-329-293H370v576" id="aH"/><path d="M611 442c-248 0-391-105-460-228l146-94c47 65 117 165 314 165 178 0 307-82 307-266v-224h-17C863-141 792-18 576-18c-268 0-472-195-472-546 0-346 197-568 476-568 216 0 288 133 326 193h17v-179h175V29c0 289-215 413-487 413zm-5-620c203 0 314-146 314-390 0-237-108-403-314-403-213 0-319 180-319 403 0 230 109 390 319 390" id="aI"/><path d="M158 0v-1118h180V0H158zm91-1301c-68 0-125-53-125-119s57-119 125-119c69 0 126 53 126 119s-57 119-126 119" id="aJ"/><path d="M692-1560L212 224H46l480-1784h166" id="aK"/><path d="M338-670V0H158v-1118h173l1 207c72-158 192-221 342-221 226 0 378 139 378 422V0H872v-695c0-172-96-275-252-275-161 0-282 109-282 300" id="aL"/><path d="M537 14c-226 0-379-139-379-422v-710h180v695c0 172 97 275 253 275 160 0 281-109 281-300v-670h181V0H879v-209C806-46 684 14 537 14" id="aM"/><path d="M158 418v-1536h174v179h20c37-59 106-193 324-193 279 0 474 222 474 576 0 356-194 580-473 580-213 0-288-135-325-197h-14v591H158zm492-555c209 0 317-186 317-421 0-232-105-413-317-413-206 0-314 166-314 413 0 249 111 421 314 421" id="aN"/><g id="j"><use transform="matrix(0.008173828125000001,0,0,0.008173828125000001,0,0)" xlink:href="#aH"/><use transform="matrix(0.008173828125000001,0,0,0.008173828125000001,10.527890625000001,0)" xlink:href="#aC"/><use transform="matrix(0.008173828125000001,0,0,0.008173828125000001,20.287441406250004,0)" xlink:href="#aI"/><use transform="matrix(0.008173828125000001,0,0,0.008173828125000001,30.553769531250005,0)" xlink:href="#aJ"/><use transform="matrix(0.008173828125000001,0,0,0.008173828125000001,34.60798828125,0)" xlink:href="#aB"/><use transform="matrix(0.008173828125000001,0,0,0.008173828125000001,43.443896484375,0)" xlink:href="#ax"/><use transform="matrix(0.008173828125000001,0,0,0.008173828125000001,48.756884765625,0)" xlink:href="#aC"/><use transform="matrix(0.008173828125000001,0,0,0.008173828125000001,58.516435546875,0)" xlink:href="#az"/><use transform="matrix(0.008173828125000001,0,0,0.008173828125000001,64.254462890625,0)" xlink:href="#aK"/><use transform="matrix(0.008173828125000001,0,0,0.008173828125000001,70.286748046875,0)" xlink:href="#aE"/><use transform="matrix(0.008173828125000001,0,0,0.008173828125000001,81.02715820312501,0)" xlink:href="#aJ"/><use transform="matrix(0.008173828125000001,0,0,0.008173828125000001,85.08137695312502,0)" xlink:href="#aI"/><use transform="matrix(0.008173828125000001,0,0,0.008173828125000001,95.34770507812502,0)" xlink:href="#aL"/><use transform="matrix(0.008173828125000001,0,0,0.008173828125000001,105.23803710937501,0)" xlink:href="#aM"/><use transform="matrix(0.008173828125000001,0,0,0.008173828125000001,115.13654296875,0)" xlink:href="#aN"/></g><g id="k"><use transform="matrix(0.010192057291666664,0,0,0.010192057291666664,0,0)" xlink:href="#aA"/><use transform="matrix(0.010192057291666664,0,0,0.010192057291666664,15.532695312499996,0)" xlink:href="#aB"/><use transform="matrix(0.010192057291666664,0,0,0.010192057291666664,26.55030924479166,0)" xlink:href="#aC"/><use transform="matrix(0.010192057291666664,0,0,0.010192057291666664,38.71962565104165,0)" xlink:href="#az"/></g><path d="M180 0v-1490h908v168H370v486h669v168H370v500h727V0H180" id="aO"/><path d="M65 0l393-574-370-544h210c88 136 192 297 267 435 67-142 176-302 264-435h206L661-564 1053 0H844c-94-144-206-310-287-458C484-308 366-142 273 0H65" id="aP"/><path d="M338-1490V0H158v-1490h180" id="aQ"/><g id="l"><use transform="matrix(0.010959201388888886,0,0,0.010959201388888886,0,0)" xlink:href="#aO"/><use transform="matrix(0.010959201388888886,0,0,0.010959201388888886,13.49077690972222,0)" xlink:href="#aP"/><use transform="matrix(0.010959201388888886,0,0,0.010959201388888886,26.18153211805555,0)" xlink:href="#ax"/><use transform="matrix(0.010959201388888886,0,0,0.010959201388888886,33.30501302083333,0)" xlink:href="#aC"/><use transform="matrix(0.010959201388888886,0,0,0.010959201388888886,46.39029947916666,0)" xlink:href="#az"/><use transform="matrix(0.010959201388888886,0,0,0.010959201388888886,55.19053819444443,0)" xlink:href="#aL"/><use transform="matrix(0.010959201388888886,0,0,0.010959201388888886,68.45117187499999,0)" xlink:href="#aD"/><use transform="matrix(0.010959201388888886,0,0,0.010959201388888886,81.0542534722222,0)" xlink:href="#aQ"/></g><path d="M180 0v-1490h190v1322h690V0H180" id="aR"/><g id="m"><use transform="matrix(0.010959201388888886,0,0,0.010959201388888886,0,0)" xlink:href="#aR"/><use transform="matrix(0.010959201388888886,0,0,0.010959201388888886,12.69075520833333,0)" xlink:href="#ay"/><use transform="matrix(0.010959201388888886,0,0,0.010959201388888886,26.148654513888882,0)" xlink:href="#aI"/><use transform="matrix(0.010959201388888886,0,0,0.010959201388888886,39.91341145833332,0)" xlink:href="#aJ"/><use transform="matrix(0.010959201388888886,0,0,0.010959201388888886,45.349175347222214,0)" xlink:href="#aL"/></g><path d="M370-1490V0H180v-1490h190" id="aS"/><g id="n"><use transform="matrix(0.010959201388888886,0,0,0.010959201388888886,0,0)" xlink:href="#av"/><use transform="matrix(0.010959201388888886,0,0,0.010959201388888886,15.485351562499996,0)" xlink:href="#aS"/></g><path d="M783 20c-382 0-661-292-661-764 0-473 279-766 661-766 302 0 548 182 601 489h-190c-42-204-217-313-411-313-268 0-476 208-476 590 0 381 209 588 476 588 195 0 369-110 411-313h190c-52 303-296 489-601 489" id="aT"/><path d="M338-670V0H158v-1490h180v566c73-149 190-208 336-208 226 0 379 139 379 422V0H872v-695c0-172-96-275-252-275-161 0-282 109-282 300" id="aU"/><g id="o"><use transform="matrix(0.010959201388888886,0,0,0.010959201388888886,0,0)" xlink:href="#aT"/><use transform="matrix(0.010959201388888886,0,0,0.010959201388888886,16.394965277777775,0)" xlink:href="#ay"/><use transform="matrix(0.010959201388888886,0,0,0.010959201388888886,30.07204861111111,0)" xlink:href="#aD"/><use transform="matrix(0.010959201388888886,0,0,0.010959201388888886,42.67513020833333,0)" xlink:href="#aw"/><use transform="matrix(0.010959201388888886,0,0,0.010959201388888886,55.49739583333333,0)" xlink:href="#aU"/></g><path d="M577 24c-279 0-473-224-473-580 0-354 195-576 474-576 218 0 287 134 324 193h14v-551h180V0H922v-173h-20C865-111 790 24 577 24zm27-161c203 0 314-172 314-421 0-247-108-413-314-413-212 0-317 181-317 413 0 235 108 421 317 421" id="aV"/><g id="p"><use transform="matrix(0.010959201388888886,0,0,0.010959201388888886,0,0)" xlink:href="#aE"/><use transform="matrix(0.010959201388888886,0,0,0.010959201388888886,14.400390624999996,0)" xlink:href="#ax"/><use transform="matrix(0.010959201388888886,0,0,0.010959201388888886,21.74305555555555,0)" xlink:href="#aM"/><use transform="matrix(0.010959201388888886,0,0,0.010959201388888886,35.01464843749999,0)" xlink:href="#aV"/><use transform="matrix(0.010959201388888886,0,0,0.010959201388888886,48.75748697916666,0)" xlink:href="#aC"/><use transform="matrix(0.010959201388888886,0,0,0.010959201388888886,61.842773437499986,0)" xlink:href="#aL"/><use transform="matrix(0.010959201388888886,0,0,0.010959201388888886,75.10340711805554,0)" xlink:href="#ax"/></g><path d="M645 0H180v-1490h484c435 0 692 280 692 742 0 466-257 748-711 748zM370-168h263c363 0 539-218 539-580 0-358-176-574-521-574H370v1154" id="aW"/><path d="M481 0L54-1118h197c107 314 236 620 325 951 87-331 217-637 324-951h197L670 0H481" id="aX"/><g id="q"><use transform="matrix(0.010959201388888886,0,0,0.010959201388888886,0,0)" xlink:href="#aW"/><use transform="matrix(0.010959201388888886,0,0,0.010959201388888886,16.197699652777775,0)" xlink:href="#aC"/><use transform="matrix(0.010959201388888886,0,0,0.010959201388888886,28.84461805555555,0)" xlink:href="#aX"/></g><g id="r"><use transform="matrix(0.010959201388888886,0,0,0.010959201388888886,0,0)" xlink:href="#aE"/><use transform="matrix(0.010959201388888886,0,0,0.010959201388888886,14.400390624999996,0)" xlink:href="#aF"/><use transform="matrix(0.010959201388888886,0,0,0.010959201388888886,27.014431423611104,0)" xlink:href="#aB"/></g><g id="s"><use transform="matrix(0.010959201388888886,0,0,0.010959201388888886,0,0)" xlink:href="#av"/><use transform="matrix(0.010959201388888886,0,0,0.010959201388888886,15.485351562499996,0)" xlink:href="#aV"/><use transform="matrix(0.010959201388888886,0,0,0.010959201388888886,29.22819010416666,0)" xlink:href="#aG"/><use transform="matrix(0.010959201388888886,0,0,0.010959201388888886,48.88899739583332,0)" xlink:href="#aJ"/><use transform="matrix(0.010959201388888886,0,0,0.010959201388888886,54.32476128472221,0)" xlink:href="#aL"/></g><g id="t"><use transform="matrix(0.008173828125000001,0,0,0.008173828125000001,0,0)" xlink:href="#aR"/><use transform="matrix(0.008173828125000001,0,0,0.008173828125000001,9.465292968750001,0)" xlink:href="#ay"/><use transform="matrix(0.008173828125000001,0,0,0.008173828125000001,19.50275390625,0)" xlink:href="#aI"/><use transform="matrix(0.008173828125000001,0,0,0.008173828125000001,29.76908203125,0)" xlink:href="#aJ"/><use transform="matrix(0.008173828125000001,0,0,0.008173828125000001,33.82330078125,0)" xlink:href="#aL"/></g><path d="M789 20c-398 0-667-293-667-764 0-473 273-766 655-766 315 0 558 198 612 487h-196c-61-191-204-311-415-311-262 0-471 207-471 590 0 380 208 588 482 588 249 0 420-165 425-427H828v-166h572v163c0 370-256 606-611 606" id="aY"/><path d="M180 0v-1490h190v644h782v-644h190V0h-190v-678H370V0H180" id="aZ"/><path d="M677 24c-213 0-288-135-325-197h-20V0H158v-1490h180v551h14c37-59 106-193 324-193 279 0 474 222 474 576 0 356-194 580-473 580zm-27-161c209 0 317-186 317-421 0-232-105-413-317-413-206 0-314 166-314 413 0 249 111 421 314 421" id="ba"/><g id="u"><use transform="matrix(0.010959201388888886,0,0,0.010959201388888886,0,0)" xlink:href="#aY"/><use transform="matrix(0.010959201388888886,0,0,0.010959201388888886,16.745659722222218,0)" xlink:href="#aJ"/><use transform="matrix(0.010959201388888886,0,0,0.010959201388888886,22.181423611111107,0)" xlink:href="#ax"/><use transform="matrix(0.010959201388888886,0,0,0.010959201388888886,29.52408854166666,0)" xlink:href="#aZ"/><use transform="matrix(0.010959201388888886,0,0,0.010959201388888886,46.20399305555554,0)" xlink:href="#aM"/><use transform="matrix(0.010959201388888886,0,0,0.010959201388888886,59.475585937499986,0)" xlink:href="#ba"/></g><g id="v"><use transform="matrix(0.010959201388888886,0,0,0.010959201388888886,0,0)" xlink:href="#aR"/><use transform="matrix(0.010959201388888886,0,0,0.010959201388888886,12.69075520833333,0)" xlink:href="#ay"/><use transform="matrix(0.010959201388888886,0,0,0.010959201388888886,26.148654513888882,0)" xlink:href="#aI"/><use transform="matrix(0.010959201388888886,0,0,0.010959201388888886,39.91341145833332,0)" xlink:href="#aJ"/><use transform="matrix(0.010959201388888886,0,0,0.010959201388888886,45.349175347222214,0)" xlink:href="#aL"/></g><g id="w"><use transform="matrix(0.010959201388888886,0,0,0.010959201388888886,0,0)" xlink:href="#av"/><use transform="matrix(0.010959201388888886,0,0,0.010959201388888886,15.485351562499996,0)" xlink:href="#aM"/><use transform="matrix(0.010959201388888886,0,0,0.010959201388888886,28.75694444444444,0)" xlink:href="#ax"/><use transform="matrix(0.010959201388888886,0,0,0.010959201388888886,36.099609374999986,0)" xlink:href="#aU"/><use transform="matrix(0.010959201388888886,0,0,0.010959201388888886,49.371202256944436,0)" xlink:href="#aC"/><use transform="matrix(0.010959201388888886,0,0,0.010959201388888886,62.45648871527775,0)" xlink:href="#aL"/><use transform="matrix(0.010959201388888886,0,0,0.010959201388888886,75.71712239583331,0)" xlink:href="#ax"/><use transform="matrix(0.010959201388888886,0,0,0.010959201388888886,83.05978732638887,0)" xlink:href="#aJ"/><use transform="matrix(0.010959201388888886,0,0,0.010959201388888886,88.49555121527776,0)" xlink:href="#aw"/><use transform="matrix(0.010959201388888886,0,0,0.010959201388888886,101.53700086805553,0)" xlink:href="#aD"/><use transform="matrix(0.010959201388888886,0,0,0.010959201388888886,114.14008246527776,0)" xlink:href="#ax"/><use transform="matrix(0.010959201388888886,0,0,0.010959201388888886,121.26356336805553,0)" xlink:href="#ay"/><use transform="matrix(0.010959201388888886,0,0,0.010959201388888886,134.7214626736111,0)" xlink:href="#az"/></g><g id="x"><use transform="matrix(0.010959201388888886,0,0,0.010959201388888886,0,0)" xlink:href="#aY"/><use transform="matrix(0.010959201388888886,0,0,0.010959201388888886,16.745659722222218,0)" xlink:href="#ay"/><use transform="matrix(0.010959201388888886,0,0,0.010959201388888886,30.20355902777777,0)" xlink:href="#ay"/><use transform="matrix(0.010959201388888886,0,0,0.010959201388888886,43.66145833333332,0)" xlink:href="#aI"/><use transform="matrix(0.010959201388888886,0,0,0.010959201388888886,57.426215277777764,0)" xlink:href="#aQ"/><use transform="matrix(0.010959201388888886,0,0,0.010959201388888886,62.86197916666665,0)" xlink:href="#aC"/></g><g id="y"><use transform="matrix(0.008173828125000001,0,0,0.008173828125000001,0,0)" xlink:href="#aR"/><use transform="matrix(0.008173828125000001,0,0,0.008173828125000001,9.465292968750001,0)" xlink:href="#ay"/><use transform="matrix(0.008173828125000001,0,0,0.008173828125000001,19.50275390625,0)" xlink:href="#aI"/><use transform="matrix(0.008173828125000001,0,0,0.008173828125000001,29.76908203125,0)" xlink:href="#aJ"/><use transform="matrix(0.008173828125000001,0,0,0.008173828125000001,33.82330078125,0)" xlink:href="#aL"/></g><g id="z"><use transform="matrix(0.008173828125000001,0,0,0.008173828125000001,0,0)" xlink:href="#aA"/><use transform="matrix(0.008173828125000001,0,0,0.008173828125000001,12.456914062500001,0)" xlink:href="#aB"/><use transform="matrix(0.008173828125000001,0,0,0.008173828125000001,21.292822265625002,0)" xlink:href="#aJ"/><use transform="matrix(0.008173828125000001,0,0,0.008173828125000001,25.347041015625003,0)" xlink:href="#aL"/><use transform="matrix(0.008173828125000001,0,0,0.008173828125000001,35.23737304687501,0)" xlink:href="#aI"/></g><g id="A"><use transform="matrix(0.008173828125000001,0,0,0.008173828125000001,0,0)" xlink:href="#aO"/><use transform="matrix(0.008173828125000001,0,0,0.008173828125000001,10.061982421875001,0)" xlink:href="#aP"/><use transform="matrix(0.008173828125000001,0,0,0.008173828125000001,19.527275390625,0)" xlink:href="#ax"/><use transform="matrix(0.008173828125000001,0,0,0.008173828125000001,24.840263671875,0)" xlink:href="#aC"/><use transform="matrix(0.008173828125000001,0,0,0.008173828125000001,34.599814453125,0)" xlink:href="#az"/><use transform="matrix(0.008173828125000001,0,0,0.008173828125000001,41.16339843749999,0)" xlink:href="#aL"/><use transform="matrix(0.008173828125000001,0,0,0.008173828125000001,51.05373046874999,0)" xlink:href="#aD"/><use transform="matrix(0.008173828125000001,0,0,0.008173828125000001,60.45363281249999,0)" xlink:href="#aQ"/></g><path d="M180 0v-1490h510c348 0 508 209 508 474 0 266-160 477-507 477H370V0H180zm190-706h312c236 0 327-133 327-310 0-176-91-307-329-307H370v617" id="bb"/><path d="M678-1118v154H420V0H240v-964H20v-154h220v-149c0-194 155-293 318-293 85 0 141 18 168 30l-50 154c-19-6-47-17-97-17-111 0-159 58-159 166v109h258" id="bc"/><g id="B"><use transform="matrix(0.008173828125000001,0,0,0.008173828125000001,0,0)" xlink:href="#bb"/><use transform="matrix(0.008173828125000001,0,0,0.008173828125000001,10.691367187500001,0)" xlink:href="#aQ"/><use transform="matrix(0.008173828125000001,0,0,0.008173828125000001,14.745585937500001,0)" xlink:href="#aD"/><use transform="matrix(0.008173828125000001,0,0,0.008173828125000001,24.145488281250003,0)" xlink:href="#ax"/><use transform="matrix(0.008173828125000001,0,0,0.008173828125000001,29.213261718750005,0)" xlink:href="#bc"/><use transform="matrix(0.008173828125000001,0,0,0.008173828125000001,34.91859375000001,0)" xlink:href="#ay"/><use transform="matrix(0.008173828125000001,0,0,0.008173828125000001,44.95605468750001,0)" xlink:href="#az"/><use transform="matrix(0.008173828125000001,0,0,0.008173828125000001,51.519638671875,0)" xlink:href="#aG"/></g><path d="M600 0L52-1490h200c166 485 304 806 458 1336 156-533 285-846 449-1336h202L819 0H600" id="bd"/><path d="M409 0L70-1118h191c89 329 165 560 243 925 75-353 154-601 240-925h192c85 325 161 564 235 922 77-354 157-598 244-922h191L1267 0h-179c-86-307-176-590-250-913C763-588 675-308 588 0H409" id="be"/><g id="C"><use transform="matrix(0.008173828125000001,0,0,0.008173828125000001,0,0)" xlink:href="#bd"/><use transform="matrix(0.008173828125000001,0,0,0.008173828125000001,11.549619140625001,0)" xlink:href="#aJ"/><use transform="matrix(0.008173828125000001,0,0,0.008173828125000001,15.603837890625002,0)" xlink:href="#aC"/><use transform="matrix(0.008173828125000001,0,0,0.008173828125000001,25.060957031250002,0)" xlink:href="#be"/></g><g id="D"><use transform="matrix(0.008173828125000001,0,0,0.008173828125000001,0,0)" xlink:href="#aS"/><use transform="matrix(0.008173828125000001,0,0,0.008173828125000001,4.495605468750001,0)" xlink:href="#aL"/><use transform="matrix(0.008173828125000001,0,0,0.008173828125000001,14.3859375,0)" xlink:href="#ax"/><use transform="matrix(0.008173828125000001,0,0,0.008173828125000001,19.69892578125,0)" xlink:href="#aC"/><use transform="matrix(0.008173828125000001,0,0,0.008173828125000001,29.458476562500003,0)" xlink:href="#az"/><use transform="matrix(0.008173828125000001,0,0,0.008173828125000001,36.022060546875004,0)" xlink:href="#aL"/><use transform="matrix(0.008173828125000001,0,0,0.008173828125000001,45.91239257812501,0)" xlink:href="#aB"/><use transform="matrix(0.008173828125000001,0,0,0.008173828125000001,54.74830078125001,0)" xlink:href="#aU"/><use transform="matrix(0.008173828125000001,0,0,0.008173828125000001,64.64680664062502,0)" xlink:href="#aJ"/><use transform="matrix(0.008173828125000001,0,0,0.008173828125000001,68.70102539062502,0)" xlink:href="#aN"/><use transform="matrix(0.008173828125000001,0,0,0.008173828125000001,78.95100585937502,0)" xlink:href="#aB"/></g><g id="E"><use transform="matrix(0.008173828125000001,0,0,0.008173828125000001,0,0)" xlink:href="#aW"/><use transform="matrix(0.008173828125000001,0,0,0.008173828125000001,12.08091796875,0)" xlink:href="#aC"/><use transform="matrix(0.008173828125000001,0,0,0.008173828125000001,21.84046875,0)" xlink:href="#aQ"/><use transform="matrix(0.008173828125000001,0,0,0.008173828125000001,25.8946875,0)" xlink:href="#aC"/><use transform="matrix(0.008173828125000001,0,0,0.008173828125000001,35.65423828125,0)" xlink:href="#ax"/><use transform="matrix(0.008173828125000001,0,0,0.008173828125000001,40.9672265625,0)" xlink:href="#aC"/></g><g id="F"><use transform="matrix(0.008173828125000001,0,0,0.008173828125000001,0,0)" xlink:href="#aS"/><use transform="matrix(0.008173828125000001,0,0,0.008173828125000001,4.495605468750001,0)" xlink:href="#aL"/><use transform="matrix(0.008173828125000001,0,0,0.008173828125000001,14.3859375,0)" xlink:href="#ax"/><use transform="matrix(0.008173828125000001,0,0,0.008173828125000001,19.69892578125,0)" xlink:href="#aC"/><use transform="matrix(0.008173828125000001,0,0,0.008173828125000001,29.458476562500003,0)" xlink:href="#az"/><use transform="matrix(0.008173828125000001,0,0,0.008173828125000001,36.022060546875004,0)" xlink:href="#aL"/><use transform="matrix(0.008173828125000001,0,0,0.008173828125000001,45.91239257812501,0)" xlink:href="#aB"/><use transform="matrix(0.008173828125000001,0,0,0.008173828125000001,54.74830078125001,0)" xlink:href="#aU"/><use transform="matrix(0.008173828125000001,0,0,0.008173828125000001,64.64680664062502,0)" xlink:href="#aJ"/><use transform="matrix(0.008173828125000001,0,0,0.008173828125000001,68.70102539062502,0)" xlink:href="#aN"/></g><g id="G"><use transform="matrix(0.008173828125000001,0,0,0.008173828125000001,0,0)" xlink:href="#aR"/><use transform="matrix(0.008173828125000001,0,0,0.008173828125000001,9.465292968750001,0)" xlink:href="#aJ"/><use transform="matrix(0.008173828125000001,0,0,0.008173828125000001,13.519511718750001,0)" xlink:href="#aB"/><use transform="matrix(0.008173828125000001,0,0,0.008173828125000001,22.355419921875004,0)" xlink:href="#ax"/></g><path d="M174-520v-126l944-476v196L406-588v12l712 338v194" id="bf"/><path d="M1181-520L237-44v-194l712-338v-12L237-926v-196l944 476v126" id="bg"/><g id="H"><use transform="matrix(0.010192057291666666,0,0,0.010192057291666666,0,0)" xlink:href="#bf"/><use transform="matrix(0.010192057291666666,0,0,0.010192057291666666,13.810237630208333,0)" xlink:href="#bf"/><use transform="matrix(0.010192057291666666,0,0,0.010192057291666666,27.620475260416665,0)" xlink:href="#aC"/><use transform="matrix(0.010192057291666666,0,0,0.010192057291666666,39.320957031249996,0)" xlink:href="#aP"/><use transform="matrix(0.010192057291666666,0,0,0.010192057291666666,51.12335937499999,0)" xlink:href="#ax"/><use transform="matrix(0.010192057291666666,0,0,0.010192057291666666,57.74819661458333,0)" xlink:href="#aC"/><use transform="matrix(0.010192057291666666,0,0,0.010192057291666666,69.91751302083333,0)" xlink:href="#aL"/><use transform="matrix(0.010192057291666666,0,0,0.010192057291666666,82.24990234375,0)" xlink:href="#aV"/><use transform="matrix(0.010192057291666666,0,0,0.010192057291666666,95.0307421875,0)" xlink:href="#bg"/><use transform="matrix(0.010192057291666666,0,0,0.010192057291666666,108.84097981770832,0)" xlink:href="#bg"/></g><g id="I"><use transform="matrix(0.008173828125000001,0,0,0.008173828125000001,0,0)" xlink:href="#av"/><use transform="matrix(0.008173828125000001,0,0,0.008173828125000001,11.549619140625001,0)" xlink:href="#aN"/><use transform="matrix(0.008173828125000001,0,0,0.008173828125000001,21.799599609375,0)" xlink:href="#aN"/><use transform="matrix(0.008173828125000001,0,0,0.008173828125000001,32.049580078125004,0)" xlink:href="#aQ"/><use transform="matrix(0.008173828125000001,0,0,0.008173828125000001,36.185537109375005,0)" xlink:href="#aF"/></g><g id="J"><use transform="matrix(0.008173828125000001,0,0,0.008173828125000001,0,0)" xlink:href="#ax"/><use transform="matrix(0.008173828125000001,0,0,0.008173828125000001,5.312988281250001,0)" xlink:href="#ay"/></g><g id="K"><use transform="matrix(0.008173828125000001,0,0,0.008173828125000001,0,0)" xlink:href="#av"/><use transform="matrix(0.008173828125000001,0,0,0.008173828125000001,11.549619140625001,0)" xlink:href="#aV"/><use transform="matrix(0.008173828125000001,0,0,0.008173828125000001,21.799599609375,0)" xlink:href="#aV"/></g><g id="L"><use transform="matrix(0.008173828125000001,0,0,0.008173828125000001,0,0)" xlink:href="#aT"/><use transform="matrix(0.008173828125000001,0,0,0.008173828125000001,12.228046875000002,0)" xlink:href="#ay"/><use transform="matrix(0.008173828125000001,0,0,0.008173828125000001,22.265507812500008,0)" xlink:href="#aG"/><use transform="matrix(0.008173828125000001,0,0,0.008173828125000001,36.92935546875,0)" xlink:href="#aG"/><use transform="matrix(0.008173828125000001,0,0,0.008173828125000001,51.593203124999995,0)" xlink:href="#aC"/><use transform="matrix(0.008173828125000001,0,0,0.008173828125000001,61.35275390625,0)" xlink:href="#aL"/><use transform="matrix(0.008173828125000001,0,0,0.008173828125000001,71.2430859375,0)" xlink:href="#ax"/></g><g id="M"><use transform="matrix(0.008173828125000001,0,0,0.008173828125000001,0,0)" xlink:href="#bb"/><use transform="matrix(0.008173828125000001,0,0,0.008173828125000001,10.691367187500001,0)" xlink:href="#aM"/><use transform="matrix(0.008173828125000001,0,0,0.008173828125000001,20.589873046875002,0)" xlink:href="#ba"/><use transform="matrix(0.008173828125000001,0,0,0.008173828125000001,30.839853515625002,0)" xlink:href="#aQ"/><use transform="matrix(0.008173828125000001,0,0,0.008173828125000001,34.894072265625,0)" xlink:href="#aJ"/><use transform="matrix(0.008173828125000001,0,0,0.008173828125000001,38.948291015625,0)" xlink:href="#aB"/><use transform="matrix(0.008173828125000001,0,0,0.008173828125000001,47.784199218750004,0)" xlink:href="#aU"/></g><g id="N"><use transform="matrix(0.008173828125000001,0,0,0.008173828125000001,0,0)" xlink:href="#bb"/><use transform="matrix(0.008173828125000001,0,0,0.008173828125000001,10.601455078125001,0)" xlink:href="#ay"/><use transform="matrix(0.008173828125000001,0,0,0.008173828125000001,20.638916015625,0)" xlink:href="#aB"/><use transform="matrix(0.008173828125000001,0,0,0.008173828125000001,29.47482421875,0)" xlink:href="#ax"/></g><path d="M180 0v-1490h270l367 940c28 72 75 218 110 339 35-117 81-264 110-339l362-940h271V0h-187c2-448-5-837 7-1287-157 497-311 829-483 1287H842C666-458 514-784 354-1284c12 438 5 843 7 1284H180" id="bh"/><path d="M158 0v-1490h180v865h22l478-493h223L593-638 1096 0H865L456-523 338-412V0H158" id="bi"/><g id="O"><use transform="matrix(0.008173828125000001,0,0,0.008173828125000001,0,0)" xlink:href="#bh"/><use transform="matrix(0.008173828125000001,0,0,0.008173828125000001,15.121582031250002,0)" xlink:href="#aD"/><use transform="matrix(0.008173828125000001,0,0,0.008173828125000001,24.521484375000004,0)" xlink:href="#bi"/><use transform="matrix(0.008173828125000001,0,0,0.008173828125000001,33.33287109375,0)" xlink:href="#aC"/></g><g id="P"><use transform="matrix(0.008173828125000001,0,0,0.008173828125000001,0,0)" xlink:href="#aS"/><use transform="matrix(0.008173828125000001,0,0,0.008173828125000001,4.495605468750001,0)" xlink:href="#aL"/><use transform="matrix(0.008173828125000001,0,0,0.008173828125000001,14.3859375,0)" xlink:href="#ax"/><use transform="matrix(0.008173828125000001,0,0,0.008173828125000001,19.69892578125,0)" xlink:href="#aC"/><use transform="matrix(0.008173828125000001,0,0,0.008173828125000001,29.458476562500003,0)" xlink:href="#az"/><use transform="matrix(0.008173828125000001,0,0,0.008173828125000001,36.022060546875004,0)" xlink:href="#aX"/><use transform="matrix(0.008173828125000001,0,0,0.008173828125000001,45.430136718750006,0)" xlink:href="#aJ"/><use transform="matrix(0.008173828125000001,0,0,0.008173828125000001,49.48435546875001,0)" xlink:href="#aC"/><use transform="matrix(0.008173828125000001,0,0,0.008173828125000001,58.94147460937501,0)" xlink:href="#be"/></g><g id="Q"><use transform="matrix(0.008173828125000001,0,0,0.008173828125000001,0,0)" xlink:href="#aZ"/><use transform="matrix(0.008173828125000001,0,0,0.008173828125000001,12.440566406250001,0)" xlink:href="#aH"/></g><g id="R"><use transform="matrix(0.008173828125000001,0,0,0.008173828125000001,0,0)" xlink:href="#aG"/><use transform="matrix(0.008173828125000001,0,0,0.008173828125000001,14.663847656250002,0)" xlink:href="#ay"/><use transform="matrix(0.008173828125000001,0,0,0.008173828125000001,24.701308593750003,0)" xlink:href="#aw"/><use transform="matrix(0.008173828125000001,0,0,0.008173828125000001,34.26468750000001,0)" xlink:href="#bi"/></g><g id="S"><use transform="matrix(0.008173828125000001,0,0,0.008173828125000001,0,0)" xlink:href="#aJ"/><use transform="matrix(0.008173828125000001,0,0,0.008173828125000001,4.05421875,0)" xlink:href="#aL"/><use transform="matrix(0.008173828125000001,0,0,0.008173828125000001,13.944550781250001,0)" xlink:href="#ax"/><use transform="matrix(0.008173828125000001,0,0,0.008173828125000001,19.2575390625,0)" xlink:href="#aC"/><use transform="matrix(0.008173828125000001,0,0,0.008173828125000001,29.01708984375,0)" xlink:href="#az"/><use transform="matrix(0.008173828125000001,0,0,0.008173828125000001,35.58067382812501,0)" xlink:href="#aX"/><use transform="matrix(0.008173828125000001,0,0,0.008173828125000001,44.98875,0)" xlink:href="#aJ"/><use transform="matrix(0.008173828125000001,0,0,0.008173828125000001,49.04296875,0)" xlink:href="#aC"/><use transform="matrix(0.008173828125000001,0,0,0.008173828125000001,58.500087890625,0)" xlink:href="#be"/></g><g id="T"><use transform="matrix(0.008173828125000001,0,0,0.008173828125000001,0,0)" xlink:href="#aE"/><use transform="matrix(0.008173828125000001,0,0,0.008173828125000001,10.740410156250002,0)" xlink:href="#ay"/><use transform="matrix(0.008173828125000001,0,0,0.008173828125000001,20.77787109375,0)" xlink:href="#aQ"/><use transform="matrix(0.008173828125000001,0,0,0.008173828125000001,24.913828125000002,0)" xlink:href="#aX"/><use transform="matrix(0.008173828125000001,0,0,0.008173828125000001,33.994951171875,0)" xlink:href="#aC"/></g><g id="U"><use transform="matrix(0.008173828125000001,0,0,0.008173828125000001,0,0)" xlink:href="#bb"/><use transform="matrix(0.008173828125000001,0,0,0.008173828125000001,10.691367187500001,0)" xlink:href="#az"/><use transform="matrix(0.008173828125000001,0,0,0.008173828125000001,16.715478515625,0)" xlink:href="#ay"/><use transform="matrix(0.008173828125000001,0,0,0.008173828125000001,26.752939453125002,0)" xlink:href="#ba"/><use transform="matrix(0.008173828125000001,0,0,0.008173828125000001,37.002919921875005,0)" xlink:href="#aQ"/><use transform="matrix(0.008173828125000001,0,0,0.008173828125000001,41.05713867187501,0)" xlink:href="#aC"/><use transform="matrix(0.008173828125000001,0,0,0.008173828125000001,50.81668945312501,0)" xlink:href="#aG"/><use transform="matrix(0.008173828125000001,0,0,0.008173828125000001,65.480537109375,0)" xlink:href="#aB"/></g><path d="M98-1322v-168h1126v168H757V0H567v-1322H98" id="bj"/><g id="V"><use transform="matrix(0.008173828125000001,0,0,0.008173828125000001,0,0)" xlink:href="#bj"/><use transform="matrix(0.008173828125000001,0,0,0.008173828125000001,9.49798828125,0)" xlink:href="#aC"/><use transform="matrix(0.008173828125000001,0,0,0.008173828125000001,19.2575390625,0)" xlink:href="#aw"/><use transform="matrix(0.008173828125000001,0,0,0.008173828125000001,28.820917968750003,0)" xlink:href="#aU"/></g><path d="M545 20c-263 0-445-160-445-446v-80h190v80c0 182 102 279 255 279 152 0 254-97 254-279v-1064h190v1064c0 286-181 446-444 446" id="bk"/><g id="W"><use transform="matrix(0.008173828125000001,0,0,0.008173828125000001,0,0)" xlink:href="#bk"/><use transform="matrix(0.008173828125000001,0,0,0.008173828125000001,9.555205078125,0)" xlink:href="#ay"/><use transform="matrix(0.008173828125000001,0,0,0.008173828125000001,19.592666015625,0)" xlink:href="#aJ"/><use transform="matrix(0.008173828125000001,0,0,0.008173828125000001,23.646884765625,0)" xlink:href="#aL"/></g><g id="X"><use transform="matrix(0.008173828125000001,0,0,0.008173828125000001,0,0)" xlink:href="#bj"/><use transform="matrix(0.008173828125000001,0,0,0.008173828125000001,9.49798828125,0)" xlink:href="#aC"/><use transform="matrix(0.008173828125000001,0,0,0.008173828125000001,19.421015625000003,0)" xlink:href="#aD"/><use transform="matrix(0.008173828125000001,0,0,0.008173828125000001,28.820917968750003,0)" xlink:href="#aG"/></g><g id="Y"><use transform="matrix(0.008173828125000001,0,0,0.008173828125000001,0,0)" xlink:href="#aT"/><use transform="matrix(0.008173828125000001,0,0,0.008173828125000001,12.228046875000002,0)" xlink:href="#az"/><use transform="matrix(0.008173828125000001,0,0,0.008173828125000001,18.252158203125003,0)" xlink:href="#aC"/><use transform="matrix(0.008173828125000001,0,0,0.008173828125000001,28.175185546875007,0)" xlink:href="#aD"/><use transform="matrix(0.008173828125000001,0,0,0.008173828125000001,37.57508789062501,0)" xlink:href="#ax"/><use transform="matrix(0.008173828125000001,0,0,0.008173828125000001,42.88807617187501,0)" xlink:href="#aC"/></g><path d="M157-1118h181V80c1 225-123 350-364 338V252c126 9 184-48 183-172v-1198zm91-183c-68 0-125-53-125-119s57-119 125-119c69 0 126 53 126 119s-57 119-126 119" id="bl"/><g id="Z"><use transform="matrix(0.008173828125000001,0,0,0.008173828125000001,0,0)" xlink:href="#bb"/><use transform="matrix(0.008173828125000001,0,0,0.008173828125000001,10.691367187500001,0)" xlink:href="#az"/><use transform="matrix(0.008173828125000001,0,0,0.008173828125000001,16.715478515625,0)" xlink:href="#ay"/><use transform="matrix(0.008173828125000001,0,0,0.008173828125000001,26.752939453125002,0)" xlink:href="#bl"/><use transform="matrix(0.008173828125000001,0,0,0.008173828125000001,30.807158203125002,0)" xlink:href="#aC"/><use transform="matrix(0.008173828125000001,0,0,0.008173828125000001,40.566708984375005,0)" xlink:href="#aw"/><use transform="matrix(0.008173828125000001,0,0,0.008173828125000001,50.130087890625006,0)" xlink:href="#ax"/></g><g id="aa"><use transform="matrix(0.008173828125000001,0,0,0.008173828125000001,0,0)" xlink:href="#aB"/><use transform="matrix(0.008173828125000001,0,0,0.008173828125000001,8.835908203125001,0)" xlink:href="#aU"/><use transform="matrix(0.008173828125000001,0,0,0.008173828125000001,18.7344140625,0)" xlink:href="#ay"/><use transform="matrix(0.008173828125000001,0,0,0.008173828125000001,28.469443359375003,0)" xlink:href="#be"/><use transform="matrix(0.008173828125000001,0,0,0.008173828125000001,41.86634765625001,0)" xlink:href="#aw"/><use transform="matrix(0.008173828125000001,0,0,0.008173828125000001,51.59320312500001,0)" xlink:href="#aD"/><use transform="matrix(0.008173828125000001,0,0,0.008173828125000001,60.99310546875001,0)" xlink:href="#aB"/><use transform="matrix(0.008173828125000001,0,0,0.008173828125000001,69.829013671875,0)" xlink:href="#aC"/></g><g id="ab"><use transform="matrix(0.008173828125000001,0,0,0.008173828125000001,0,0)" xlink:href="#bh"/><use transform="matrix(0.008173828125000001,0,0,0.008173828125000001,15.121582031250002,0)" xlink:href="#ay"/><use transform="matrix(0.008173828125000001,0,0,0.008173828125000001,25.15904296875,0)" xlink:href="#aV"/><use transform="matrix(0.008173828125000001,0,0,0.008173828125000001,35.409023437500004,0)" xlink:href="#aC"/><use transform="matrix(0.008173828125000001,0,0,0.008173828125000001,45.16857421875,0)" xlink:href="#az"/><use transform="matrix(0.008173828125000001,0,0,0.008173828125000001,51.470595703125,0)" xlink:href="#aD"/><use transform="matrix(0.008173828125000001,0,0,0.008173828125000001,60.870498046875,0)" xlink:href="#ax"/><use transform="matrix(0.008173828125000001,0,0,0.008173828125000001,66.183486328125,0)" xlink:href="#aC"/></g><g id="ac"><use transform="matrix(0.008173828125000001,0,0,0.008173828125000001,0,0)" xlink:href="#aA"/><use transform="matrix(0.008173828125000001,0,0,0.008173828125000001,12.456914062500001,0)" xlink:href="#aB"/><use transform="matrix(0.008173828125000001,0,0,0.008173828125000001,21.292822265625002,0)" xlink:href="#aC"/><use transform="matrix(0.008173828125000001,0,0,0.008173828125000001,31.052373046875005,0)" xlink:href="#az"/></g><g id="ad"><use transform="matrix(0.008173828125000001,0,0,0.008173828125000001,0,0)" xlink:href="#bh"/><use transform="matrix(0.008173828125000001,0,0,0.008173828125000001,15.121582031250002,0)" xlink:href="#aC"/><use transform="matrix(0.008173828125000001,0,0,0.008173828125000001,24.881132812500002,0)" xlink:href="#aV"/><use transform="matrix(0.008173828125000001,0,0,0.008173828125000001,35.13111328125,0)" xlink:href="#aJ"/><use transform="matrix(0.008173828125000001,0,0,0.008173828125000001,39.18533203125,0)" xlink:href="#aD"/></g><g id="ae"><use transform="matrix(0.008173828125000001,0,0,0.008173828125000001,0,0)" xlink:href="#bc"/><use transform="matrix(0.008173828125000001,0,0,0.008173828125000001,5.705332031250001,0)" xlink:href="#ay"/><use transform="matrix(0.008173828125000001,0,0,0.008173828125000001,15.742792968750003,0)" xlink:href="#az"/></g><g id="af"><use transform="matrix(0.008173828125000001,0,0,0.008173828125000001,0,0)" xlink:href="#bb"/><use transform="matrix(0.008173828125000001,0,0,0.008173828125000001,10.601455078125001,0)" xlink:href="#aC"/><use transform="matrix(0.008173828125000001,0,0,0.008173828125000001,20.361005859375002,0)" xlink:href="#aC"/><use transform="matrix(0.008173828125000001,0,0,0.008173828125000001,30.120556640625004,0)" xlink:href="#az"/></g><g id="ag"><use transform="matrix(0.008173828125000001,0,0,0.008173828125000001,0,0)" xlink:href="#aH"/><use transform="matrix(0.008173828125000001,0,0,0.008173828125000001,10.527890625000001,0)" xlink:href="#aC"/><use transform="matrix(0.008173828125000001,0,0,0.008173828125000001,19.96048828125,0)" xlink:href="#aX"/><use transform="matrix(0.008173828125000001,0,0,0.008173828125000001,29.368564453125003,0)" xlink:href="#aJ"/><use transform="matrix(0.008173828125000001,0,0,0.008173828125000001,33.42278320312501,0)" xlink:href="#aC"/><use transform="matrix(0.008173828125000001,0,0,0.008173828125000001,42.879902343750004,0)" xlink:href="#be"/></g><g id="ah"><use transform="matrix(0.008173828125000001,0,0,0.008173828125000001,0,0)" xlink:href="#bd"/><use transform="matrix(0.008173828125000001,0,0,0.008173828125000001,11.549619140625001,0)" xlink:href="#aJ"/><use transform="matrix(0.008173828125000001,0,0,0.008173828125000001,15.603837890625002,0)" xlink:href="#aC"/><use transform="matrix(0.008173828125000001,0,0,0.008173828125000001,25.060957031250002,0)" xlink:href="#be"/></g></defs></g></svg>